<?xml version="1.0" encoding="UTF-8"?>
<svg xmlns="http://www.w3.org/2000/svg" width="60" height="60">
	<circle cx="30" cy="30" r="29" fill="#005" />
	<path d="M 24,8 L 6,11 L 1,44 L 24,44 L 25,43 C 28,45 32,45 35,43 L 36,44 L 59,44 L 54,11 L 36,8 L 30,19 z" fill="#f00" />
	<path d="M 25,9 L 7,12 L 2,43 L 23,43 C 24,42 25,42 25,42 C 27,44 33,44 35,42 C 35,42 36,42 37,43 L 58,43 L 53,12 L 35,9 L 30,19 z" fill="#a33" />
	<path d="M 30,10 C 25,4 16,8 8,11 L 3,42 C 11,42 19,40 25,42 C 28,39 32,39 35,42 C 41,40 49,42 57,42 L 52,11 C 44,8 35,4 30,10 z" fill="#fff" />
	<path d="M 30,39 C 22,35 14,37 5,40 L 10,10.2 C 9,10.5 9,10.5 8,11 L 3,42 C 11,42 19,40 25,42 C 28,39 32,39 35,42 C 41,40 49,42 57,42 L 52,11 C 51,10.5 51,10.5 50,10.2 L 55,40 C 46,37 38,35 30,39 z" fill="#aaa" />
	<line x1="30" y1="10" x2="30" y2="39" stroke="#333" stroke-linecap="round" />
	<path d="M 25,42 C 28,39 32,39 35,42" stroke="#080" fill="none" stroke-linecap="round" />
</svg>