<?xml version="1.0" standalone="no"?>
<!DOCTYPE svg PUBLIC "-//W3C//DTD SVG 20010904//EN"
 "http://www.w3.org/TR/2001/REC-SVG-20010904/DTD/svg10.dtd">
<svg version="1.0" xmlns="http://www.w3.org/2000/svg"
 width="512.000000pt" height="512.000000pt" viewBox="0 0 512.000000 512.000000"
 preserveAspectRatio="xMidYMid meet">
<metadata>
Created by potrace 1.14, written by Peter Selinger 2001-2017
</metadata>
<g transform="translate(0.000000,512.000000) scale(0.100000,-0.100000)"
fill="#000000" stroke="none">
<path d="M2315 5024 c-273 -39 -405 -70 -591 -135 -64 -23 -183 -75 -263 -115
-244 -121 -423 -248 -626 -445 l-120 -116 -99 -16 c-54 -9 -99 -17 -101 -19
-2 -2 -13 -68 -25 -147 -20 -134 -25 -150 -65 -221 -115 -198 -210 -433 -264
-648 -56 -225 -66 -312 -66 -602 0 -278 10 -381 56 -563 l20 -78 -41 -265
c-22 -146 -40 -269 -40 -274 0 -6 59 -10 150 -10 l149 0 28 -47 c183 -320 473
-625 793 -836 210 -139 496 -263 748 -326 225 -56 312 -66 602 -66 290 0 377
10 602 66 252 63 538 187 748 326 320 211 610 516 793 836 l28 47 149 0 c91 0
150 4 150 10 0 5 -18 128 -40 274 l-41 265 20 78 c46 182 56 285 56 563 0 290
-10 377 -66 602 -54 215 -149 450 -264 648 -40 71 -45 87 -65 221 -12 79 -23
145 -25 147 -2 2 -47 10 -101 19 l-99 16 -120 116 c-371 360 -803 580 -1320
673 -85 15 -167 20 -365 23 -140 2 -268 1 -285 -1z m-115 -524 c41 -12 104
-37 141 -56 69 -36 185 -128 183 -144 -1 -6 -2 -577 -2 -1270 l-2 -1259 -37
-6 c-122 -21 -258 -88 -352 -175 l-44 -40 -91 19 c-228 49 -473 51 -1014 6
-331 -27 -708 -49 -720 -41 -5 3 87 598 204 1323 169 1045 216 1320 230 1330
9 6 50 24 93 39 42 14 119 42 171 62 320 118 592 197 775 227 133 21 367 14
465 -15z m1178 14 c187 -27 405 -90 732 -209 80 -29 179 -64 221 -79 43 -15
84 -33 93 -39 14 -10 61 -285 230 -1330 117 -725 209 -1320 204 -1323 -12 -8
-389 14 -720 41 -541 45 -786 43 -1014 -6 l-91 -19 -44 40 c-94 87 -230 154
-351 175 l-38 6 -2 1267 -3 1267 44 40 c173 159 423 216 739 169z"/>
</g>
</svg>
